<?xml version="1.0" encoding="utf-8"?>
<!-- Generator: Adobe Illustrator 17.1.0, SVG Export Plug-In . SVG Version: 6.00 Build 0)  -->
<!DOCTYPE svg PUBLIC "-//W3C//DTD SVG 1.1//EN" "http://www.w3.org/Graphics/SVG/1.1/DTD/svg11.dtd">
<svg version="1.1" id="Capa_1" xmlns="http://www.w3.org/2000/svg" xmlns:xlink="http://www.w3.org/1999/xlink" x="0px" y="0px"
	 viewBox="0 0 512 512" enable-background="new 0 0 512 512" xml:space="preserve">
<g>
	<g>
		<path fill="#FFFFFF" d="M360.2,175l-159,140.6c-1.6,1.4-2.6,3.3-2.8,5.4l-6.1,54.4c-0.2,1.8-2.7,2-3.2,0.3l-25.2-81.2
			c-1.2-3.7,0.3-7.7,3.7-9.8l187.8-116.5C359.6,165.7,364,171.7,360.2,175z"/>
		<path fill="#FFFFFF" d="M0,0v512h512V0H0z M426.8,133l-58.5,279.5c-2.7,13.1-18.1,19-28.9,11.1l-88.3-64.8l-45,45.9
			c-7.9,8.1-21.5,4.8-24.9-6l-32.5-103l-87-25.7c-11.4-3.4-12.1-19.3-1-23.6L403.2,113C416.2,107.9,429.7,119.3,426.8,133z"/>
	</g>
</g>
</svg>
