<?xml version="1.0" encoding="utf-8"?>
<!-- Generator: Adobe Illustrator 17.1.0, SVG Export Plug-In . SVG Version: 6.00 Build 0)  -->
<!DOCTYPE svg PUBLIC "-//W3C//DTD SVG 1.1//EN" "http://www.w3.org/Graphics/SVG/1.1/DTD/svg11.dtd">
<svg version="1.1" id="Layer_1" xmlns="http://www.w3.org/2000/svg" xmlns:xlink="http://www.w3.org/1999/xlink" x="0px" y="0px"
	 viewBox="0 0 221.5 21.7" enable-background="new 0 0 221.5 21.7" xml:space="preserve">
<g>
	<path fill="#FFFFFF" d="M13.3,19.5L23.6,1.6h2.7L14.6,21.7H12L0.3,1.6H3L13.3,19.5z"/>
	<path fill="#FFFFFF" d="M42,5.5c1,0,1.8,0.3,2.4,1c0.7,0.7,1,1.5,1,2.4v12.9H32.3c-0.9,0-1.7-0.3-2.4-1c-0.7-0.7-1-1.5-1-2.4v-5.9
		h14.2V8.9c0-0.3-0.1-0.6-0.3-0.8c-0.2-0.2-0.5-0.3-0.8-0.3H28.9V5.5H42z M43.1,19.4v-4.7H31.2v3.6c0,0.3,0.1,0.6,0.3,0.8
		c0.2,0.2,0.5,0.3,0.8,0.3H43.1z"/>
	<path fill="#FFFFFF" d="M51.4,19.4h13.2v2.3H51.4c-0.9,0-1.7-0.3-2.4-1c-0.7-0.7-1-1.5-1-2.4V8.9c0-0.9,0.3-1.7,1-2.4
		c0.7-0.7,1.5-1,2.4-1h13.1v2.3H51.4c-0.3,0-0.6,0.1-0.8,0.3c-0.2,0.2-0.3,0.5-0.3,0.8v9.5c0,0.3,0.1,0.6,0.3,0.8
		C50.8,19.3,51.1,19.4,51.4,19.4z"/>
	<path fill="#FFFFFF" d="M67.7,1.6H86v2.3H69.9v6.7h13v2.3h-13v8.9h-2.3V1.6z"/>
	<path fill="#FFFFFF" d="M91.1,5.5h9.7c1,0,1.8,0.3,2.4,1c0.7,0.7,1,1.5,1,2.4v9.5c0,0.9-0.3,1.7-1,2.4c-0.7,0.7-1.5,1-2.4,1h-9.7
		c-0.9,0-1.7-0.3-2.4-1c-0.7-0.7-1-1.5-1-2.4V8.9c0-0.9,0.3-1.7,1-2.4C89.4,5.8,90.2,5.5,91.1,5.5z M100.8,7.8h-9.7
		c-0.3,0-0.6,0.1-0.8,0.3C90.1,8.3,90,8.6,90,8.9v9.5c0,0.3,0.1,0.6,0.3,0.8c0.2,0.2,0.5,0.3,0.8,0.3h9.7c0.3,0,0.6-0.1,0.8-0.3
		c0.2-0.2,0.3-0.5,0.3-0.8V8.9c0-0.3-0.1-0.6-0.3-0.8C101.4,7.9,101.1,7.8,100.8,7.8z"/>
	<path fill="#FFFFFF" d="M110.2,5.5h9.1v2.3h-9.1c-0.3,0-0.6,0.1-0.8,0.3c-0.2,0.2-0.3,0.5-0.3,0.8v12.9h-2.3V8.9
		c0-0.9,0.3-1.7,1-2.4C108.5,5.8,109.3,5.5,110.2,5.5z"/>
	<path fill="#FFFFFF" d="M142.7,5.5c1,0,1.8,0.3,2.4,1c0.7,0.7,1,1.5,1,2.4v12.9h-2.3V8.9c0-0.3-0.1-0.6-0.3-0.8
		c-0.2-0.2-0.5-0.3-0.8-0.3h-6.7c-0.3,0-0.6,0.1-0.8,0.3c-0.2,0.2-0.3,0.5-0.3,0.8v12.9h-2.3V8.9c0-0.3-0.1-0.6-0.3-0.8
		c-0.2-0.2-0.5-0.3-0.8-0.3h-6.8c-0.3,0-0.6,0.1-0.8,0.3c-0.2,0.2-0.3,0.5-0.3,0.8v12.9h-2.3V5.5H142.7z"/>
	<path fill="#FFFFFF" d="M161.7,5.5c1,0,1.8,0.3,2.4,1c0.7,0.7,1,1.5,1,2.4v12.9h-13.2c-0.9,0-1.7-0.3-2.4-1c-0.7-0.7-1-1.5-1-2.4
		v-5.9h14.2V8.9c0-0.3-0.1-0.6-0.3-0.8c-0.2-0.2-0.5-0.3-0.8-0.3h-13.1V5.5H161.7z M162.8,19.4v-4.7h-11.9v3.6
		c0,0.3,0.1,0.6,0.3,0.8c0.2,0.2,0.5,0.3,0.8,0.3H162.8z"/>
	<path fill="#FFFFFF" d="M177.3,7.8h-7v10.6c0,0.3,0.1,0.6,0.3,0.8c0.2,0.2,0.5,0.3,0.8,0.3h5.9v2.3h-5.9c-1,0-1.8-0.3-2.4-1
		c-0.7-0.7-1-1.5-1-2.4V0.2h2.3v5.3h7V7.8z"/>
	<path fill="#FFFFFF" d="M179.6,0.2h2.3v2.3h-2.3V0.2z M179.6,21.7V5.5h2.3v16.2H179.6z"/>
	<path fill="#FFFFFF" d="M188.8,5.5h9.7c1,0,1.8,0.3,2.4,1c0.7,0.7,1,1.5,1,2.4v9.5c0,0.9-0.3,1.7-1,2.4c-0.7,0.7-1.5,1-2.4,1h-9.7
		c-0.9,0-1.7-0.3-2.4-1c-0.7-0.7-1-1.5-1-2.4V8.9c0-0.9,0.3-1.7,1-2.4C187,5.8,187.8,5.5,188.8,5.5z M198.5,7.8h-9.7
		c-0.3,0-0.6,0.1-0.8,0.3c-0.2,0.2-0.3,0.5-0.3,0.8v9.5c0,0.3,0.1,0.6,0.3,0.8c0.2,0.2,0.5,0.3,0.8,0.3h9.7c0.3,0,0.6-0.1,0.8-0.3
		c0.2-0.2,0.3-0.5,0.3-0.8V8.9c0-0.3-0.1-0.6-0.3-0.8C199.1,7.9,198.8,7.8,198.5,7.8z"/>
	<path fill="#FFFFFF" d="M217.6,5.5c0.9,0,1.7,0.3,2.4,1c0.7,0.7,1,1.5,1,2.4v12.9h-2.3V8.9c0-0.3-0.1-0.6-0.3-0.8
		c-0.2-0.2-0.5-0.3-0.8-0.3h-9.7c-0.3,0-0.6,0.1-0.8,0.3c-0.2,0.2-0.3,0.5-0.3,0.8v12.9h-2.3V5.5H217.6z"/>
</g>
</svg>
